<?xml version="1.0" encoding="utf-8"?>
<!-- Generator: Adobe Illustrator 25.4.1, SVG Export Plug-In . SVG Version: 6.00 Build 0)  -->
<svg version="1.1" id="Layer_1" xmlns="http://www.w3.org/2000/svg" xmlns:xlink="http://www.w3.org/1999/xlink" x="0px" y="0px"
	 viewBox="0 0 212 31" style="enable-background:new 0 0 212 31;" xml:space="preserve">
<style type="text/css">
	.st0{fill:#D30000;}
</style>
<g>
	<g>
		<path d="M39.3,26.5v-9.7c0-3.5-1.8-5.6-4.8-5.6c-2.8,0-5.2,2.1-5.2,5.8v9.5h-1.6v-9.8c0-3.4-1.9-5.5-4.8-5.5
			c-2.9,0-5.2,2.6-5.2,5.9v9.4h-1.6V10.1h1.6V13c1.1-1.7,2.5-3.3,5.5-3.3c2.9,0,4.6,1.6,5.5,3.5c1.1-1.8,2.8-3.5,5.9-3.5
			c3.9,0,6.3,2.7,6.3,6.8v9.9H39.3z"/>
		<path d="M53.9,26.9c-4.8,0-8.4-3.9-8.4-8.5v-0.1c0-4.6,3.6-8.6,8.4-8.6c4.8,0,8.4,3.9,8.4,8.5v0.1C62.4,22.9,58.8,26.9,53.9,26.9z
			 M60.7,18.3c0-3.9-3-7.1-6.7-7.1c-3.9,0-6.7,3.2-6.7,7v0.1c0,3.9,3,7.1,6.7,7.1C57.9,25.4,60.7,22.2,60.7,18.3L60.7,18.3z"/>
		<path d="M74.5,26.9c-4.8,0-8.4-3.9-8.4-8.5v-0.1c0-4.6,3.6-8.6,8.4-8.6c4.8,0,8.4,3.9,8.4,8.5v0.1C82.9,22.9,79.3,26.9,74.5,26.9z
			 M81.2,18.3c0-3.9-3-7.1-6.7-7.1c-3.9,0-6.7,3.2-6.7,7v0.1c0,3.9,3,7.1,6.7,7.1C78.4,25.4,81.2,22.2,81.2,18.3L81.2,18.3z"/>
		<path d="M94.8,26.6h-1.3l-7.3-16.5h1.8l6.2,14.6l6.3-14.6h1.8L94.8,26.6z"/>
		<path d="M106.4,5.8V3.7h2v2.1H106.4z M106.6,26.5V10.1h1.6v16.4H106.6z"/>
		<path d="M121.4,25.4c2.5,0,4.3-1.1,5.6-2.6l1.1,1c-1.7,1.8-3.6,3.1-6.8,3.1c-4.3,0-8-3.4-8-8.5v-0.1c0-4.7,3.3-8.5,7.8-8.5
			c4.6,0,7.5,3.7,7.5,8.6v0.1c0,0.2,0,0.3,0,0.6H115C115.2,23,118.2,25.4,121.4,25.4z M126.9,17.5c-0.2-3.3-2.1-6.4-5.9-6.4
			c-3.2,0-5.7,2.7-6,6.4H126.9z"/>
		<path d="M138.4,26.8c-2.4,0-5-1-6.7-2.4l0.9-1.3c1.8,1.4,3.8,2.2,5.9,2.2c2.2,0,3.9-1.2,3.9-3.1v-0.1c0-1.9-2.1-2.6-4.3-3.3
			c-2.7-0.8-5.6-1.6-5.6-4.5v-0.1c0-2.6,2.2-4.5,5.4-4.5c2,0,4.2,0.7,5.8,1.8l-0.8,1.3c-1.5-1-3.3-1.6-5-1.6c-2.2,0-3.7,1.2-3.7,2.9
			v0.1c0,1.8,2.2,2.5,4.6,3.2c2.6,0.7,5.4,1.7,5.4,4.6V22C144.1,24.9,141.6,26.8,138.4,26.8z"/>
		<path d="M165.9,26.9c-4.7,0-8.3-3.9-8.3-8.5v-0.1c0-4.6,3.7-8.6,8.3-8.6c3.1,0,5,1.4,6.5,3l-1.1,1.2c-1.4-1.4-3-2.7-5.5-2.7
			c-3.7,0-6.6,3.1-6.6,7v0.1c0,3.9,3,7.1,6.7,7.1c2.3,0,4.1-1.2,5.5-2.7l1.1,1C171,25.5,169,26.9,165.9,26.9z"/>
		<path d="M184.3,26.9c-4.8,0-8.4-3.9-8.4-8.5v-0.1c0-4.6,3.6-8.6,8.4-8.6c4.8,0,8.4,3.9,8.4,8.5v0.1
			C192.7,22.9,189.2,26.9,184.3,26.9z M191,18.3c0-3.9-3-7.1-6.7-7.1c-3.9,0-6.7,3.2-6.7,7v0.1c0,3.9,3,7.1,6.7,7.1
			C188.2,25.4,191,22.2,191,18.3L191,18.3z"/>
	</g>
	<circle class="st0" cx="150.7" cy="18.3" r="2.9"/>
</g>
</svg>
