<?xml version="1.0" encoding="utf-8"?>
<!-- Generator: Adobe Illustrator 25.4.1, SVG Export Plug-In . SVG Version: 6.00 Build 0)  -->
<svg version="1.1" id="Layer_1" xmlns="http://www.w3.org/2000/svg" xmlns:xlink="http://www.w3.org/1999/xlink" x="0px" y="0px"
	 viewBox="0 0 188.8 31" style="enable-background:new 0 0 188.8 31;" xml:space="preserve">
<style type="text/css">
	.st0{fill:#EFEFEF;}
	.st1{fill:#D30000;}
</style>
<path class="st0" d="M30.5,28.4V17.1c0-4.1-2.1-6.5-5.6-6.5c-3.2,0-6,2.5-6,6.7v11.1H17V17c0-4-2.2-6.4-5.6-6.4s-6.1,3-6.1,6.8v11
	H3.5V9.3h1.8v3.4c1.2-2,3-3.8,6.4-3.8c3.3,0,5.4,1.9,6.4,4.1c1.2-2.1,3.3-4.1,6.9-4.1c4.5,0,7.3,3.2,7.3,8v11.5H30.5z"/>
<path class="st0" d="M47.5,28.8c-5.6,0-9.7-4.6-9.7-9.9v-0.1c0-5.3,4.1-10,9.8-10c5.6,0,9.7,4.6,9.7,9.9v0.1
	C57.3,24.2,53.2,28.8,47.5,28.8z M55.3,18.9c0-4.6-3.4-8.3-7.8-8.3c-4.5,0-7.8,3.7-7.8,8.2v0.1c0,4.6,3.4,8.3,7.8,8.3
	C52.1,27.1,55.3,23.4,55.3,18.9L55.3,18.9z"/>
<path class="st0" d="M69.2,28.5h-1.6L59,9.3h2.1l7.2,17l7.3-17h2.1L69.2,28.5z"/>
<path class="st0" d="M82.7,4.4V1.9H85v2.5H82.7z M83,28.4V9.3h1.8v19.1C84.8,28.4,83,28.4,83,28.4z"/>
<path class="st0" d="M100.1,27.1c3,0,5-1.3,6.5-3l1.3,1.1c-1.9,2.1-4.2,3.6-7.9,3.6c-5,0-9.3-4-9.3-9.9v-0.1c0-5.5,3.9-9.9,9-9.9
	c5.3,0,8.7,4.3,8.7,10V19c0,0.3,0,0.4,0,0.7H92.6C93,24.3,96.4,27.1,100.1,27.1z M106.5,18c-0.3-3.8-2.5-7.4-6.8-7.4
	c-3.8,0-6.7,3.2-7,7.4H106.5z"/>
<path class="st0" d="M120,28.8c-2.8,0-5.8-1.1-7.8-2.8l1.1-1.5c2.1,1.6,4.4,2.5,6.8,2.5c2.6,0,4.6-1.4,4.6-3.6v-0.1
	c0-2.2-2.4-3.1-5-3.8c-3.1-0.9-6.5-1.8-6.5-5.2v-0.1c0-3.1,2.6-5.3,6.3-5.3c2.3,0,4.9,0.8,6.8,2.1l-1,1.5c-1.8-1.2-3.8-1.9-5.9-1.9
	c-2.6,0-4.3,1.4-4.3,3.3V14c0,2.1,2.6,2.9,5.3,3.7c3.1,0.9,6.3,2,6.3,5.3v0.1C126.6,26.6,123.7,28.8,120,28.8z"/>
<path class="st0" d="M152,28.8c-5.5,0-9.7-4.6-9.7-9.9v-0.1c0-5.3,4.3-10,9.7-10c3.6,0,5.8,1.6,7.6,3.5l-1.3,1.3
	c-1.6-1.7-3.5-3.1-6.4-3.1c-4.3,0-7.7,3.6-7.7,8.2v0.1c0,4.6,3.5,8.3,7.8,8.3c2.7,0,4.8-1.4,6.4-3.2l1.3,1.1
	C157.8,27.3,155.5,28.8,152,28.8z"/>
<path class="st0" d="M173.4,28.8c-5.6,0-9.7-4.6-9.7-9.9v-0.1c0-5.3,4.1-10,9.8-10c5.6,0,9.7,4.6,9.7,9.9v0.1
	C183.2,24.2,179,28.8,173.4,28.8z M181.2,18.9c0-4.6-3.4-8.3-7.8-8.3c-4.5,0-7.8,3.7-7.8,8.2v0.1c0,4.6,3.4,8.3,7.8,8.3
	C178,27.1,181.2,23.4,181.2,18.9L181.2,18.9z"/>
<circle class="st1" cx="134.3" cy="18.9" r="3.4"/>
</svg>
